<?xml version="1.0" encoding="UTF-8"?>
<svg id="_Слой_1" data-name="Слой 1" xmlns="http://www.w3.org/2000/svg" viewBox="0 0 1000 1000">
  <defs>
    <style>
      .cls-1 {
        fill: #010101;
      }
    </style>
  </defs>
  <path class="cls-1" d="M525,506.94c-7.64-16.67-14.58-32.64-22.22-47.92-106.25,34.72-208.33,38.19-246.53,38.89v2.08c0,59.72,21.53,113.89,57.64,156.25,27.08-36.81,95.14-113.19,211.11-149.31Z"/>
  <path class="cls-1" d="M477.78,412.5c-43.75-77.78-83.33-126.39-84.03-127.78l7.64-6.25c-69.44,30.56-121.53,92.36-138.89,167.36,37.5-.69,125-5.56,215.28-33.33Z"/>
  <path class="cls-1" d="M527.78,394.44c45.83-18.75,89.58-44.44,126.39-79.17-42.36-35.42-96.53-56.94-156.25-56.94-18.75,0-37.5,2.08-54.86,6.25,15.97,20.83,49.31,66.67,84.72,129.86Z"/>
  <path class="cls-1" d="M576.39,494.44c47.92-8.33,102.08-9.72,163.19,0-1.39-53.47-19.44-102.08-50-141.67-40.97,38.89-88.89,67.36-138.19,88.19,9.03,16.67,17.36,34.72,25,53.47Z"/>
  <path class="cls-1" d="M500,0C224.31,0,0,223.61,0,500s223.61,500,500,500,500-223.61,500-500S776.39,0,500,0Zm-2.08,793.75c-161.81,0-293.75-131.94-293.75-293.75S336.11,206.25,497.92,206.25s293.75,131.94,293.75,293.75-131.25,293.75-293.75,293.75Z"/>
  <path class="cls-1" d="M587.5,723.61c-7.64-59.03-23.61-116.67-43.06-168.75-113.19,33.33-174.31,109.03-193.75,136.81,40.97,31.25,91.67,50,147.22,50,33.33,0,64.58-6.94,93.06-18.75l-3.47,.69Z"/>
  <path class="cls-1" d="M595.83,543.75c17.36,47.92,31.94,100,40.28,154.86,50.69-35.42,86.81-89.58,99.31-152.78-52.08-8.33-98.61-8.33-139.58-2.08Z"/>
</svg>